<svg width="133" height="29" viewBox="0 0 133 29" fill="none" xmlns="http://www.w3.org/2000/svg">
<path d="M9.2511 23.4375C7.44902 23.4375 5.85527 23.0417 4.46985 22.25C3.09485 21.4583 2.01672 20.276 1.23547 18.7031C0.454224 17.1302 0.0635987 15.1771 0.0635987 12.8437C0.0635987 10.4687 0.454224 8.50521 1.23547 6.95312C2.01672 5.39062 3.09485 4.22917 4.46985 3.46875C5.85527 2.69792 7.44902 2.3125 9.2511 2.3125C11.0636 2.3125 12.6626 2.70833 14.048 3.5C15.4334 4.28125 16.5167 5.45312 17.298 7.01562C18.0792 8.57812 18.4698 10.5208 18.4698 12.8437C18.4698 15.2083 18.0792 17.1771 17.298 18.75C16.5167 20.3229 15.4334 21.5 14.048 22.2812C12.6626 23.0521 11.0636 23.4375 9.2511 23.4375ZM15.4698 28.625C14.4386 28.625 13.4855 28.349 12.6105 27.7969C11.7355 27.2448 10.9698 26.4688 10.3136 25.4688L8.21985 22.3125L11.1573 20.9375L12.9698 23.75C13.2719 24.1875 13.6157 24.4948 14.0011 24.6719C14.3865 24.849 14.7823 24.9479 15.1886 24.9688C15.7094 24.9688 16.2094 24.901 16.6886 24.7656C17.1782 24.6406 17.6886 24.4688 18.2198 24.25V28.0625C17.7303 28.2604 17.2615 28.401 16.8136 28.4844C16.3761 28.5781 15.9282 28.625 15.4698 28.625ZM9.2511 20.0937C10.9073 20.0937 12.2198 19.4687 13.1886 18.2187C14.1678 16.9687 14.6573 15.1667 14.6573 12.8125C14.6573 10.5417 14.1678 8.77604 13.1886 7.51562C12.2198 6.25521 10.9073 5.625 9.2511 5.625C7.6261 5.625 6.32402 6.26042 5.34485 7.53125C4.36568 8.79167 3.8761 10.5625 3.8761 12.8437C3.8761 15.1875 4.36568 16.9844 5.34485 18.2344C6.32402 19.474 7.6261 20.0937 9.2511 20.0937ZM33.0182 7.78125H36.7057V23H33.0182V7.78125ZM22.6119 7.78125H26.2994V17.0937C26.2994 18.0833 26.5442 18.8281 27.0338 19.3281C27.5234 19.8177 28.1953 20.0625 29.0494 20.0625C29.7786 20.0625 30.4401 19.875 31.0338 19.5C31.638 19.1146 32.1171 18.5521 32.4713 17.8125C32.8359 17.0625 33.0182 16.1354 33.0182 15.0312H34.0182C34.0182 16.8854 33.7786 18.4219 33.2994 19.6406C32.8203 20.8594 32.1588 21.7708 31.3151 22.375C30.4713 22.9792 29.4974 23.2813 28.3932 23.2813C27.3099 23.2813 26.3307 23.0885 25.4557 22.7031C24.5807 22.3177 23.888 21.6979 23.3776 20.8437C22.8671 19.9896 22.6119 18.8646 22.6119 17.4687V7.78125ZM44.673 5.0625C43.9542 5.0625 43.3917 4.875 42.9855 4.5C42.5896 4.11458 42.3917 3.58333 42.3917 2.90625C42.3917 2.25 42.5896 1.72917 42.9855 1.34375C43.3917 0.947916 43.9542 0.75 44.673 0.75C45.3813 0.75 45.9386 0.947916 46.3448 1.34375C46.7511 1.72917 46.9542 2.25 46.9542 2.90625C46.9542 3.58333 46.7511 4.11458 46.3448 4.5C45.9386 4.875 45.3813 5.0625 44.673 5.0625ZM42.8292 23V7.78125H46.5167V23H42.8292ZM51.6456 23V20L59.5206 10.8125H51.6456V7.84375H63.5831V10.8125L55.9581 20H63.5831V23H51.6456ZM67.118 23V20L74.993 10.8125H67.118V7.84375H79.0555V10.8125L71.4305 20H79.0555V23H67.118ZM85.8717 5.0625C85.153 5.0625 84.5905 4.875 84.1842 4.5C83.7884 4.11458 83.5905 3.58333 83.5905 2.90625C83.5905 2.25 83.7884 1.72917 84.1842 1.34375C84.5905 0.947916 85.153 0.75 85.8717 0.75C86.58 0.75 87.1373 0.947916 87.5436 1.34375C87.9498 1.72917 88.153 2.25 88.153 2.90625C88.153 3.58333 87.9498 4.11458 87.5436 4.5C87.1373 4.875 86.58 5.0625 85.8717 5.0625ZM84.028 23V7.78125H87.7155V23H84.028ZM99.7194 23.4375C98.4485 23.4375 97.2662 23.1094 96.1725 22.4531C95.0892 21.7865 94.2089 20.8542 93.5319 19.6562C92.8652 18.4479 92.5319 17.0312 92.5319 15.4062C92.5319 13.6875 92.8652 12.2344 93.5319 11.0469C94.2089 9.84896 95.0892 8.94271 96.1725 8.32812C97.2662 7.71354 98.4485 7.40625 99.7194 7.40625C100.709 7.40625 101.579 7.56771 102.329 7.89062C103.089 8.20312 103.735 8.63021 104.266 9.17187C104.797 9.70312 105.214 10.2969 105.516 10.9531C105.818 11.6094 106.011 12.2708 106.094 12.9375L102.376 13.0312C102.209 12.3646 101.896 11.8125 101.438 11.375C100.99 10.9375 100.407 10.7187 99.6881 10.7187C99.0944 10.7187 98.5371 10.8854 98.0162 11.2187C97.4954 11.5417 97.0683 12.0469 96.735 12.7344C96.4121 13.4219 96.2506 14.3125 96.2506 15.4062C96.2506 16.4479 96.4017 17.3177 96.7037 18.0156C97.0162 18.7031 97.4329 19.224 97.9537 19.5781C98.4746 19.9219 99.0527 20.0937 99.6881 20.0937C100.626 20.0937 101.308 19.8698 101.735 19.4219C102.162 18.9635 102.376 18.3542 102.376 17.5937H106.094C106.094 18.6667 105.85 19.6458 105.36 20.5312C104.87 21.4167 104.152 22.125 103.204 22.6562C102.256 23.1771 101.094 23.4375 99.7194 23.4375ZM120.166 23L119.697 19.3125V13.2187C119.697 12.1562 119.479 11.3698 119.041 10.8594C118.614 10.349 117.885 10.0937 116.854 10.0937C116.26 10.0937 115.744 10.1823 115.307 10.3594C114.869 10.5365 114.531 10.7917 114.291 11.125C114.062 11.4479 113.947 11.8437 113.947 12.3125H109.916C109.916 11.1667 110.192 10.2344 110.744 9.51562C111.296 8.78646 112.088 8.25521 113.119 7.92187C114.161 7.57812 115.406 7.40625 116.854 7.40625C118.166 7.40625 119.312 7.61979 120.291 8.04687C121.27 8.46354 122.031 9.10937 122.572 9.98437C123.114 10.8594 123.385 11.9792 123.385 13.3437V23H120.166ZM115.197 23.4375C113.895 23.4375 112.807 23.2135 111.932 22.7656C111.067 22.3073 110.416 21.7083 109.979 20.9687C109.541 20.2292 109.322 19.4271 109.322 18.5625C109.322 17.6042 109.572 16.8021 110.072 16.1562C110.583 15.5 111.302 15.0104 112.229 14.6875C113.156 14.3542 114.249 14.1875 115.51 14.1875C116.333 14.1875 117.109 14.25 117.838 14.375C118.578 14.5 119.312 14.6667 120.041 14.875V17.0312C119.468 16.8437 118.843 16.6979 118.166 16.5937C117.489 16.4896 116.854 16.4375 116.26 16.4375C115.385 16.4375 114.666 16.599 114.104 16.9219C113.541 17.2448 113.26 17.7917 113.26 18.5625C113.26 19.125 113.489 19.6094 113.947 20.0156C114.406 20.4219 115.135 20.625 116.135 20.625C116.895 20.625 117.541 20.4583 118.072 20.125C118.604 19.7917 119.005 19.375 119.276 18.875C119.557 18.375 119.697 17.875 119.697 17.375H120.572C120.572 18.4687 120.369 19.4792 119.963 20.4062C119.557 21.3229 118.953 22.0573 118.151 22.6094C117.359 23.1615 116.374 23.4375 115.197 23.4375ZM128.79 23V1.5625H132.477V23H128.79Z" fill="#293264"/>
</svg>
